<svg width="303" height="303" viewBox="0 0 303 303" fill="none" xmlns="http://www.w3.org/2000/svg">
<path d="M238.387 54.6482L191.18 7.43642C188.992 5.24846 186.334 4.14771 183.24 4.14771H75.5275C65.6445 4.14771 57.596 12.1945 57.596 22.0792V224.055C57.596 233.899 65.6835 241.986 75.5275 241.986H223.742C233.623 241.986 241.674 233.936 241.674 224.055V62.5903C241.674 59.4978 240.57 56.8364 238.385 54.65L238.387 54.6482ZM185.259 179.882C180.61 167.243 168.92 159.081 155.454 159.081C141.72 159.081 129.6 167.789 125.379 180.545C124.928 181.413 124.698 182.336 124.698 183.281C124.698 186.564 127.366 189.236 130.648 189.236C132.41 189.236 134.023 188.487 135.137 187.194L135.475 187.281L136.936 183.565C139.995 175.929 147.261 170.997 155.452 170.997C163.639 170.997 170.907 175.932 174.033 183.633C174.595 186.412 177.057 188.428 179.887 188.428C181.846 188.428 183.637 187.479 184.75 185.907H185.544L185.619 184.084C185.783 183.496 185.86 182.98 185.86 182.454C185.86 181.565 185.649 180.658 185.258 179.887L185.259 179.882ZM170.349 96.7911L182.267 108.713L194.186 96.7911C195.18 95.7969 196.802 95.7969 197.794 96.7911L202.096 101.093C203.09 102.087 203.09 103.708 202.096 104.701L190.177 116.62L202.096 128.538C203.09 129.533 203.09 131.154 202.096 132.147L197.794 136.448C196.8 137.442 195.179 137.442 194.186 136.448L182.267 124.529L170.345 136.448C169.351 137.442 167.73 137.442 166.737 136.448L162.436 132.147C161.441 131.152 161.441 129.531 162.436 128.538L174.354 116.62L162.432 104.701C161.438 103.707 161.438 102.085 162.432 101.093L166.734 96.7911C167.728 95.7969 169.349 95.7969 170.342 96.7911H170.349ZM105.087 96.7911L117.006 108.713L128.924 96.7911C129.919 95.7969 131.54 95.7969 132.533 96.7911L136.834 101.093C137.828 102.087 137.828 103.708 136.834 104.701L124.915 116.62L136.834 128.538C137.828 129.533 137.828 131.154 136.834 132.147L132.533 136.448C131.538 137.442 129.917 137.442 128.924 136.448L117.006 124.529L105.087 136.448C104.093 137.442 102.471 137.442 101.479 136.448L97.1737 132.147C96.1795 131.152 96.1829 129.531 97.1737 128.538L109.092 116.62L97.1703 104.701C96.176 103.707 96.176 102.085 97.1703 101.093L101.472 96.7911C102.466 95.7969 104.088 95.7969 105.08 96.7911H105.087ZM226.707 224.051C226.707 225.673 225.368 227.014 223.744 227.014H75.5298C73.8677 227.014 72.5674 225.717 72.5674 224.051V22.08C72.5674 20.4585 73.9048 19.121 75.5298 19.121H180.935V49.1133C180.935 57.8042 188.021 64.8939 196.712 64.8939H226.704V224.056L226.707 224.051Z" fill="white"/>
</svg>
