<svg width="185" height="238" viewBox="0 0 185 238" fill="none" xmlns="http://www.w3.org/2000/svg">
<path d="M181.387 50.6482L134.18 3.43642C131.992 1.24846 129.334 0.147705 126.24 0.147705H18.5275C8.64451 0.147705 0.595963 8.19452 0.595963 18.0792V220.055C0.595963 229.899 8.68346 237.986 18.5275 237.986H166.742C176.623 237.986 184.674 229.936 184.674 220.055V58.5903C184.674 55.4978 183.57 52.8364 181.385 50.65L181.387 50.6482ZM128.259 175.882C123.611 163.243 111.92 155.081 98.4541 155.081C84.7196 155.081 72.5996 163.789 68.3792 176.545C67.9278 177.413 67.6978 178.336 67.6978 179.281C67.6978 182.564 70.366 185.236 73.6479 185.236C75.4097 185.236 77.0228 184.487 78.137 183.194L78.4752 183.281L79.9361 179.565C82.9949 171.929 90.2606 166.997 98.4524 166.997C106.639 166.997 113.907 171.932 117.033 179.633C117.595 182.412 120.057 184.428 122.887 184.428C124.846 184.428 126.637 183.479 127.75 181.907H128.544L128.619 180.084C128.783 179.496 128.86 178.98 128.86 178.454C128.86 177.565 128.649 176.658 128.258 175.887L128.259 175.882ZM113.349 92.7911L125.267 104.713L137.186 92.7911C138.18 91.7969 139.802 91.7969 140.794 92.7911L145.096 97.0926C146.09 98.0869 146.09 99.7084 145.096 100.701L133.177 112.62L145.096 124.538C146.09 125.533 146.09 127.154 145.096 128.147L140.794 132.448C139.8 133.442 138.179 133.442 137.186 132.448L125.267 120.529L113.345 132.448C112.351 133.442 110.73 133.442 109.737 132.448L105.436 128.147C104.441 127.152 104.441 125.531 105.436 124.538L117.354 112.62L105.432 100.701C104.438 99.7067 104.438 98.0851 105.432 97.0926L109.734 92.7911C110.728 91.7969 112.349 91.7969 113.342 92.7911H113.349ZM48.0869 92.7911L60.0056 104.713L71.9243 92.7911C72.9186 91.7969 74.5401 91.7969 75.5326 92.7911L79.8341 97.0926C80.8283 98.0869 80.8283 99.7084 79.8341 100.701L67.9154 112.62L79.8341 124.538C80.8283 125.533 80.8283 127.154 79.8341 128.147L75.5326 132.448C74.5384 133.442 72.9168 133.442 71.9243 132.448L60.0056 120.529L48.0869 132.448C47.0927 133.442 45.4711 133.442 44.4786 132.448L40.1737 128.147C39.1795 127.152 39.1829 125.531 40.1737 124.538L52.0925 112.62L40.1703 100.701C39.176 99.7067 39.176 98.0851 40.1703 97.0926L44.4718 92.7911C45.466 91.7969 47.0875 91.7969 48.08 92.7911H48.0869ZM169.707 220.051C169.707 221.673 168.368 223.014 166.744 223.014H18.5298C16.8677 223.014 15.5674 221.717 15.5674 220.051V18.08C15.5674 16.4585 16.9048 15.121 18.5298 15.121H123.935V45.1133C123.935 53.8042 131.021 60.8939 139.712 60.8939H169.704V220.056L169.707 220.051Z" fill="white"/>
</svg>
