<svg width="128" height="128" viewBox="0 0 128 128" fill="none" xmlns="http://www.w3.org/2000/svg">
<g clip-path="url(#clip0_38_15)">
<rect width="128" height="128" rx="16" fill="#9E9D9F"/>
<g clip-path="url(#clip1_38_15)">
<path d="M86.6292 207.715C86.6292 208.762 85.4282 209.599 83.9139 209.599C82.1907 209.756 80.9897 208.918 80.9897 207.715C80.9897 206.669 82.1907 205.832 83.705 205.832C85.2716 205.675 86.6292 206.512 86.6292 207.715ZM70.3895 205.361C70.024 206.407 71.0683 207.611 72.6349 207.924C73.9925 208.448 75.5591 207.924 75.8724 206.878C76.1857 205.832 75.1935 204.629 73.627 204.158C72.2694 203.792 70.755 204.315 70.3895 205.361ZM93.4698 204.472C91.9554 204.838 90.9111 205.832 91.0677 207.035C91.2244 208.081 92.5821 208.762 94.1486 208.395C95.6629 208.029 96.7073 207.035 96.5506 205.989C96.3939 204.995 94.9841 204.315 93.4698 204.472ZM127.829 4C55.403 4 0 59.0879 0 131.649C0 189.666 36.448 239.314 88.5091 256.787C95.1929 257.99 97.5427 253.857 97.5427 250.457C97.5427 247.213 97.3861 229.321 97.3861 218.335C97.3861 218.335 60.8337 226.182 53.1577 202.745C53.1577 202.745 47.2048 187.522 38.6411 183.598C38.6411 183.598 26.6833 175.384 39.4766 175.541C39.4766 175.541 52.4788 176.588 59.6327 189.039C71.0683 209.232 90.2323 203.425 97.6994 199.973C98.9004 191.602 102.295 185.795 106.054 182.342C76.8645 179.099 47.4137 174.861 47.4137 124.534C47.4137 110.147 51.3823 102.928 59.7371 93.7205C58.3794 90.32 53.9409 76.2995 61.0948 58.1985C72.0083 54.798 97.125 72.3236 97.125 72.3236C107.569 69.394 118.795 67.8768 129.918 67.8768C141.04 67.8768 152.267 69.394 162.71 72.3236C162.71 72.3236 187.827 54.7457 198.741 58.1985C205.895 76.3519 201.456 90.32 200.098 93.7205C208.453 102.98 213.571 110.2 213.571 124.534C213.571 175.018 182.814 179.047 153.625 182.342C158.429 186.475 162.502 194.323 162.502 206.617C162.502 224.247 162.345 246.062 162.345 250.352C162.345 253.753 164.747 257.885 171.379 256.682C223.596 239.314 259 189.666 259 131.649C259 59.0879 200.255 4 127.829 4ZM50.7556 184.435C50.0768 184.958 50.2335 186.161 51.1212 187.155C51.9567 187.992 53.1577 188.359 53.8365 187.679C54.5153 187.155 54.3587 185.952 53.471 184.958C52.6355 184.121 51.4345 183.755 50.7556 184.435ZM45.1161 180.197C44.7506 180.878 45.2728 181.715 46.3171 182.238C47.1526 182.761 48.197 182.604 48.5625 181.872C48.928 181.191 48.4058 180.354 47.3615 179.831C46.3171 179.517 45.4817 179.674 45.1161 180.197ZM62.0347 198.822C61.1992 199.502 61.5125 201.071 62.7135 202.065C63.9145 203.268 65.4288 203.425 66.1077 202.588C66.7865 201.908 66.4732 200.339 65.4288 199.345C64.28 198.142 62.7135 197.985 62.0347 198.822ZM56.0819 191.131C55.2464 191.654 55.2464 193.015 56.0819 194.218C56.9173 195.421 58.3272 195.944 59.006 195.421C59.8415 194.741 59.8415 193.381 59.006 192.178C58.275 190.974 56.9173 190.451 56.0819 191.131Z" fill="#100F11"/>
<path d="M20.7044 92.3881V121.413L14.4818 133C3.809 126.992 -17.9891 114.251 -19.7993 111.348C-21.6095 108.446 -25.3054 87.3556 -26.927 77.1733C-28.2847 60.281 -31 25.8643 -31 23.3363C-31 20.8083 -18.1776 -1.35852 -11.7664 -12.1259C14.9343 -16.4173 68.7883 -25 70.5985 -25C72.4088 -25 106.954 -22.8933 124 -21.84V10.9304L114.723 23.3363L86.6642 26.4963L54.0803 34.8059C48.0085 42.6474 35.5934 58.9858 34.5073 61.6074C33.4212 64.229 24.8528 83.2202 20.7044 92.3881Z" fill="#100F11"/>
</g>
</g>
<defs>
<clipPath id="clip0_38_15">
<rect width="128" height="128" rx="16" fill="white"/>
</clipPath>
<clipPath id="clip1_38_15">
<rect width="248" height="256" fill="white"/>
</clipPath>
</defs>
</svg>
