<svg width="754" height="779" viewBox="0 0 754 779" fill="none" xmlns="http://www.w3.org/2000/svg">
<path d="M252.195 604.638C252.195 607.681 248.698 610.115 244.29 610.115C239.273 610.572 235.777 608.137 235.777 604.638C235.777 601.595 239.273 599.16 243.682 599.16C248.242 598.704 252.195 601.138 252.195 604.638ZM204.918 597.791C203.854 600.834 206.894 604.334 211.454 605.246C215.407 606.768 219.967 605.246 220.879 602.203C221.792 599.16 218.903 595.661 214.343 594.292C210.39 593.227 205.982 594.748 204.918 597.791ZM272.109 595.205C267.7 596.27 264.66 599.161 265.116 602.66C265.572 605.703 269.525 607.681 274.085 606.616C278.494 605.551 281.534 602.66 281.078 599.617C280.622 596.726 276.517 594.748 272.109 595.205ZM372.135 12.1719C161.289 12.1719 0 172.384 0 383.414C0 552.147 106.107 696.536 257.667 747.353C277.125 750.852 283.966 738.833 283.966 728.943C283.966 719.51 283.51 667.475 283.51 635.524C283.51 635.524 177.099 658.346 154.752 590.184C154.752 590.184 137.423 545.909 112.492 534.497C112.492 534.497 77.6802 510.61 114.924 511.067C114.924 511.067 152.776 514.11 173.602 550.321C206.894 609.05 262.684 592.162 284.422 582.12C287.919 557.776 297.8 540.888 308.745 530.846C223.768 521.413 138.031 509.089 138.031 362.722C138.031 320.881 149.584 299.885 173.906 273.106C169.954 263.217 157.033 222.441 177.859 169.798C209.63 159.908 282.75 210.878 282.75 210.878C313.153 202.357 345.837 197.945 378.216 197.945C410.596 197.945 443.279 202.357 473.682 210.878C473.682 210.878 546.802 159.756 578.573 169.798C599.4 222.593 586.478 263.217 582.526 273.106C606.848 300.037 621.746 321.033 621.746 362.722C621.746 509.545 532.208 521.26 447.231 530.846C461.217 542.866 473.074 565.688 473.074 601.443C473.074 652.717 472.618 716.163 472.618 728.639C472.618 738.528 479.611 750.548 498.917 747.049C650.933 696.535 754 552.147 754 383.414C754 172.384 582.982 12.1719 372.135 12.1719ZM147.76 536.932C145.783 538.453 146.24 541.953 148.824 544.844C151.256 547.278 154.752 548.343 156.729 546.365C158.705 544.844 158.249 541.344 155.665 538.453C153.232 536.019 149.736 534.954 147.76 536.932ZM131.342 524.608C130.278 526.586 131.798 529.02 134.838 530.542C137.271 532.063 140.311 531.607 141.375 529.477C142.439 527.499 140.919 525.064 137.879 523.543C134.838 522.63 132.406 523.086 131.342 524.608ZM180.595 578.773C178.163 580.751 179.075 585.315 182.571 588.206C186.068 591.705 190.476 592.162 192.452 589.727C194.429 587.749 193.517 583.185 190.476 580.294C187.132 576.795 182.571 576.338 180.595 578.773ZM163.265 556.407C160.833 557.928 160.833 561.884 163.265 565.384C165.698 568.883 169.802 570.404 171.778 568.883C174.21 566.905 174.21 562.949 171.778 559.45C169.65 555.95 165.698 554.429 163.265 556.407Z" fill="#18171A"/>
</svg>
